#!OML:ASF H:\Dans Jumps\Project 1\Capture day 1\Session 1\subject.ASF
:FULLY-SPECIFIED
:DEGREES
428
root 0.452101 17.8042 11.519 10.5494 -1.13114 -1.15271
lowerback -2.57352 0.487855 -1.03496
upperback 0.738178 0.668163 0.846135
thorax 2.1779 0.313863 1.47791
lowerneck -11.6802 -0.377159 -1.94821
upperneck 23.1565 -0.727495 2.57299
head 9.20892 -0.231728 1.12932
rclavicle -1.16413e-014 -1.49089e-016
rhumerus -30.6697 -9.26143 -81.1549
rradius 31.4035
rwrist 37.4195
rhand -17.7637 -27.7388
rfingers 7.12502
rthumb 8.49836 -57.5478
lclavicle -1.16413e-014 -1.49089e-016
lhumerus -40.0909 -7.49696 87.8225
lradius 25.7678
lwrist 16.8782
lhand -24.4671 -8.49807
lfingers 7.12502
lthumb 2.02628 21.4721
rfemur -16.7546 -5.37543 22.0792
rtibia 20.4447
rfoot -12.5237 0.672515
rtoes 16.6864
lfemur -16.9787 9.53457 -19.2391
ltibia 18.2166
lfoot -8.57741 3.49789
ltoes -2.6484
429
root 0.455718 17.8009 11.5378 10.549 -1.10758 -1.18546
lowerback -2.58414 0.446497 -0.921653
upperback 0.709598 0.608142 0.898539
thorax 2.15707 0.285375 1.46543
lowerneck -11.7796 -0.361044 -1.97061
upperneck 23.0376 -0.685049 2.52413
head 9.18513 -0.218761 1.12028
rclavicle 5.49143e-015 8.34896e-015
rhumerus -30.8656 -8.82502 -81.2233
rradius 31.4163
rwrist 37.439
rhand -17.7194 -27.6768
rfingers 7.12502
rthumb 8.54116 -57.4841
lclavicle 5.49143e-015 8.34896e-015
lhumerus -40.2374 -8.3668 88.2395
lradius 26.4532
lwrist 17.1543
lhand -24.2335 -8.39366
lfingers 7.12502
lthumb 2.25189 21.5742
rfemur -16.643 -5.34989 22.1036
rtibia 20.3946
rfoot -12.6255 0.566929
rtoes 16.5744
lfemur -16.9018 9.65666 -19.2133
ltibia 18.1967
lfoot -8.72238 3.37107
ltoes -2.63745
430
root 0.460002 17.7963 11.5555 10.504 -1.09757 -1.21453
lowerback -2.55425 0.408258 -0.804203
upperback 0.700464 0.552023 0.946747
thorax 2.1333 0.258794 1.44623
lowerneck -11.8883 -0.342185 -1.98985
upperneck 22.927 -0.637365 2.46648
head 9.16586 -0.203918 1.1084
rclavicle 7.42958e-015 9.24349e-015
rhumerus -31.0224 -8.38026 -81.298
rradius 31.4031
rwrist 37.52
rhand -17.6857 -27.6192
rfingers 7.12502
rthumb 8.57366 -57.4251
lclavicle 7.42958e-015 9.24349e-015
lhumerus -40.3407 -9.19408 88.6179
lradius 27.1134
lwrist 17.2825
lhand -24.0461 -8.33831
lfingers 7.12502
lthumb 2.43282 21.6276
rfemur -16.4852 -5.3054 22.1143
rtibia 20.345
rfoot -12.7383 0.455203
rtoes 16.4606
lfemur -16.769 9.73308 -19.1855
ltibia 18.171
lfoot -8.86519 3.32347
ltoes -2.62381
431
root 0.464708 17.7905 11.5724 10.4203 -1.09913 -1.2279
lowerback -2.49991 0.372129 -0.698465
upperback 0.715131 0.499211 0.987467
thorax 2.11998 0.233547 1.42604
lowerneck -12.0113 -0.319844 -2.0095
upperneck 22.8235 -0.584716 2.4092
head 9.15168 -0.186637 1.0974
rclavicle -5.96354e-016 6.06293e-015
rhumerus -31.1262 -7.95724 -81.3706
rradius 31.352
rwrist 37.6427
rhand -17.6663 -27.5665
rfingers 7.12502
rthumb 8.59242 -57.3717
lclavicle -5.96354e-016 6.06293e-015
lhumerus -40.3745 -9.96536 88.9451
lradius 27.7253
lwrist 17.2988
lhand -23.9139 -8.30841
lfingers 7.12502
lthumb 2.56047 21.656
rfemur -16.2979 -5.25004 22.1007
rtibia 20.3151
rfoot -12.8674 0.338829
rtoes 16.3478
lfemur -16.5803 9.76752 -19.1704
ltibia 18.125
lfoot -9.00102 3.34752
ltoes -2.61086
432
root 0.469589 17.7835 11.5886 10.3104 -1.10939 -1.22322
lowerback -2.4363 0.33673 -0.612401
upperback 0.746895 0.448165 1.02216
thorax 2.11875 0.20881 1.41085
lowerneck -12.1598 -0.293522 -2.02242
upperneck 22.743 -0.52662 2.3465
head 9.15008 -0.166652 1.08428
rclavicle -4.87022e-015 -5.36719e-015
rhumerus -31.1828 -7.5872 -81.428
rradius 31.262
rwrist 37.804
rhand -17.6522 -27.5164
rfingers 7.12502
rthumb 8.60599 -57.321
lclavicle -4.87022e-015 -5.36719e-015
lhumerus -40.3331 -10.6627 89.2146
lradius 28.2643
lwrist 17.2273
lhand -23.8361 -8.30931
lfingers 7.12502
lthumb 2.6356 21.6541
rfemur -16.1012 -5.19104 22.0634
rtibia 20.318
rfoot -13.0147 0.221901
rtoes 16.236
lfemur -16.3471 9.77175 -19.1736
ltibia 18.0514
lfoot -9.12791 3.42755
ltoes -2.60631
433
root 0.474367 17.7757 11.6042 10.1876 -1.12741 -1.19898
lowerback -2.36832 0.302201 -0.554809
upperback 0.787782 0.399316 1.05306
thorax 2.12412 0.184753 1.40793
lowerneck -12.3237 -0.262708 -2.02663
upperneck 22.6759 -0.46178 2.27417
head 9.15592 -0.143738 1.06735
rclavicle 7.95139e-016 -1.19271e-014
rhumerus -31.1926 -7.29082 -81.4582
rradius 31.1258
rwrist 37.994
rhand -17.6389 -27.4767
rfingers 7.12502
rthumb 8.61878 -57.2808
lclavicle 7.95139e-016 -1.19271e-014
lhumerus -40.2117 -11.2501 89.4122
lradius 28.7222
lwrist 17.0795
lhand -23.8449 -8.40634
lfingers 7.12502
lthumb 2.62719 21.5572
rfemur -15.9152 -5.12631 22.0033
rtibia 20.3594
rfoot -13.1768 0.102166
rtoes 16.1326
lfemur -16.085 9.74964 -19.1972
ltibia 17.9488
lfoot -9.24183 3.55241
ltoes -2.60604
434
root 0.478972 17.7674 11.6191 10.0663 -1.1488 -1.16038
lowerback -2.30709 0.267972 -0.52407
upperback 0.827756 0.35179 1.08376
thorax 2.13212 0.160999 1.42003
lowerneck -12.4694 -0.231331 -2.03395
upperneck 22.6077 -0.395549 2.20104
head 9.15794 -0.120641 1.05085
rclavicle 4.96962e-016 -9.93923e-016
rhumerus -31.1775 -7.07648 -81.4527
rradius 30.9579
rwrist 38.1964
rhand -17.6154 -27.4439
rfingers 7.12502
rthumb 8.64154 -57.247
lclavicle 4.96962e-016 -9.93923e-016
lhumerus -40.0164 -11.7334 89.5475
lradius 29.0918
lwrist 16.8981
lhand -23.9089 -8.56799
lfingers 7.12502
lthumb 2.56531 21.3963
rfemur -15.7545 -5.05807 21.9279
rtibia 20.4376
rfoot -13.3502 -0.0188395
rtoes 16.036
lfemur -15.8143 9.71144 -19.2381
ltibia 17.8219
lfoot -9.34166 3.70472
ltoes -2.65561
435
root 0.483399 17.7591 11.6336 9.96052 -1.17443 -1.11559
lowerback -2.26204 0.234813 -0.516859
upperback 0.857069 0.306403 1.12016
thorax 2.13806 0.138014 1.45137
lowerneck -12.579 -0.202063 -2.04943
upperneck 22.5344 -0.331006 2.12788
head 9.15152 -0.0992046 1.03546
rclavicle -3.8266e-015 -6.55989e-015
rhumerus -31.1495 -6.95621 -81.3981
rradius 30.7577
rwrist 38.4203
rhand -17.5873 -27.4183
rfingers 7.12502
rthumb 8.66858 -57.2203
lclavicle -3.8266e-015 -6.55989e-015
lhumerus -39.7578 -12.0795 89.616
lradius 29.3795
lwrist 16.6848
lhand -23.9992 -8.78457
lfingers 7.12502
lthumb 2.47817 21.1808
rfemur -15.63 -4.99273 21.8474
rtibia 20.5426
rfoot -13.5252 -0.128083
rtoes 15.9568
lfemur -15.5564 9.66508 -19.2892
ltibia 17.6819
lfoot -9.4283 3.87304
ltoes -2.73684
